<svg width="60" height="49" viewBox="0 0 60 49" fill="none" xmlns="http://www.w3.org/2000/svg">
<path d="M59.3884 38.2496L55.7297 29.0883L49.7324 14.0314L49.5275 13.5281C49.076 12.2756 48.2779 11.1917 47.2346 10.4141C46.1914 9.63653 44.9501 9.20047 43.6688 9.16138H29.0643C28.0396 10.5079 27.009 11.8418 25.9481 13.1568C23.4286 16.3029 20.7706 19.279 18.1968 22.3558C17.5941 23.0794 16.9431 23.803 16.3223 24.5392L18.1305 29.0695L24.3328 44.6171C24.7856 45.8693 25.585 46.9527 26.6294 47.7291C27.6737 48.5056 28.9158 48.9402 30.1975 48.9775H53.5237C58.2552 48.9964 61.3835 43.258 59.3884 38.2496Z" fill="#EBEBEB"/>
<path d="M29.0643 9.1803C29.0643 9.1803 32.8194 24.5581 16.3223 24.5581L29.0643 9.1803Z" fill="white"/>
<path d="M47.5874 21.4055H40.1918C39.759 21.4055 39.4082 21.7703 39.4082 22.2203C39.4082 22.6704 39.759 23.0352 40.1918 23.0352H47.5874C48.0202 23.0352 48.371 22.6704 48.371 22.2203C48.371 21.7703 48.0202 21.4055 47.5874 21.4055Z" fill="#004927"/>
<path d="M37.6053 21.4055H36.3636C35.9309 21.4055 35.5801 21.7703 35.5801 22.2203C35.5801 22.6704 35.9309 23.0352 36.3636 23.0352H37.6053C38.038 23.0352 38.3889 22.6704 38.3889 22.2203C38.3889 21.7703 38.038 21.4055 37.6053 21.4055Z" fill="#004927"/>
<path d="M47.5866 26.7538H29.2933C28.8606 26.7538 28.5098 27.1186 28.5098 27.5686C28.5098 28.0186 28.8606 28.3834 29.2933 28.3834H47.5866C48.0194 28.3834 48.3702 28.0186 48.3702 27.5686C48.3702 27.1186 48.0194 26.7538 47.5866 26.7538Z" fill="#004927"/>
<path d="M47.587 32.1022H27.8109C27.3782 32.1022 27.0273 32.467 27.0273 32.917C27.0273 33.367 27.3782 33.7318 27.8109 33.7318H47.587C48.0197 33.7318 48.3706 33.367 48.3706 32.917C48.3706 32.467 48.0197 32.1022 47.587 32.1022Z" fill="#004927"/>
<path d="M31.2939 37.4568H29.9437C29.511 37.4568 29.1602 37.8216 29.1602 38.2716C29.1602 38.7217 29.511 39.0864 29.9437 39.0864H31.2939C31.7266 39.0864 32.0774 38.7217 32.0774 38.2716C32.0774 37.8216 31.7266 37.4568 31.2939 37.4568Z" fill="#004927"/>
<path d="M47.586 37.4568H33.6566C33.2239 37.4568 32.873 37.8216 32.873 38.2716C32.873 38.7217 33.2239 39.0864 33.6566 39.0864H47.586C48.0188 39.0864 48.3696 38.7217 48.3696 38.2716C48.3696 37.8216 48.0188 37.4568 47.586 37.4568Z" fill="#004927"/>
<path d="M43.0661 29.0693L39.4075 19.9081L33.38 4.87005L33.1751 4.36669C32.7236 3.11427 31.9255 2.03031 30.8822 1.25273C29.839 0.47515 28.5978 0.039093 27.3164 0H12.742C11.7174 1.3465 10.6867 2.6804 9.62584 3.99544C7.10636 7.14147 4.44827 10.1176 1.87455 13.1945C1.2718 13.918 0.620827 14.6416 0 15.3778L1.80823 19.9081L8.01048 35.4558C8.46215 36.7123 9.26262 37.7996 10.3095 38.5786C11.3564 39.3576 12.6021 39.7929 13.8872 39.8287H37.2135C41.933 39.8287 45.0612 34.0778 43.0661 29.0693Z" fill="white"/>
<path d="M12.742 0C12.742 0 16.4971 15.3778 0 15.3778L12.742 0Z" fill="#DDDDDD"/>
<path d="M31.2652 12.2256H23.8695C23.4367 12.2256 23.0859 12.5904 23.0859 13.0404C23.0859 13.4904 23.4367 13.8552 23.8695 13.8552H31.2652C31.6979 13.8552 32.0488 13.4904 32.0488 13.0404C32.0488 12.5904 31.6979 12.2256 31.2652 12.2256Z" fill="#004927"/>
<path d="M21.2831 12.2256H20.0414C19.6087 12.2256 19.2578 12.5904 19.2578 13.0404C19.2578 13.4904 19.6087 13.8552 20.0414 13.8552H21.2831C21.7158 13.8552 22.0666 13.4904 22.0666 13.0404C22.0666 12.5904 21.7158 12.2256 21.2831 12.2256Z" fill="#004927"/>
<path d="M31.2644 17.5737H12.9711C12.5383 17.5737 12.1875 17.9385 12.1875 18.3885C12.1875 18.8386 12.5383 19.2034 12.9711 19.2034H31.2644C31.6971 19.2034 32.0479 18.8386 32.0479 18.3885C32.0479 17.9385 31.6971 17.5737 31.2644 17.5737Z" fill="#004927"/>
<path d="M31.2647 22.922H11.4886C11.0559 22.922 10.7051 23.2868 10.7051 23.7368C10.7051 24.1868 11.0559 24.5516 11.4886 24.5516H31.2647C31.6975 24.5516 32.0483 24.1868 32.0483 23.7368C32.0483 23.2868 31.6975 22.922 31.2647 22.922Z" fill="#004927"/>
<path d="M14.9716 28.2766H13.6215C13.1887 28.2766 12.8379 28.6414 12.8379 29.0914C12.8379 29.5414 13.1887 29.9062 13.6215 29.9062H14.9716C15.4043 29.9062 15.7552 29.5414 15.7552 29.0914C15.7552 28.6414 15.4043 28.2766 14.9716 28.2766Z" fill="#004927"/>
<path d="M31.2638 28.2766H17.3343C16.9016 28.2766 16.5508 28.6414 16.5508 29.0914C16.5508 29.5414 16.9016 29.9062 17.3343 29.9062H31.2638C31.6966 29.9062 32.0474 29.5414 32.0474 29.0914C32.0474 28.6414 31.6966 28.2766 31.2638 28.2766Z" fill="#004927"/>
</svg>
