<svg width="70" height="55" viewBox="0 0 70 55" fill="none" xmlns="http://www.w3.org/2000/svg">
<path d="M69.2867 42.7477L65.0182 32.5091L58.0214 15.6815L57.7823 15.119C57.2556 13.7193 56.3245 12.5078 55.1073 11.6388C53.8902 10.7698 52.4421 10.2825 50.9472 10.2388H33.9086C32.7132 11.7436 31.5107 13.2344 30.2731 14.7041C27.3337 18.2201 24.2326 21.5462 21.23 24.9849C20.5268 25.7935 19.7673 26.6022 19.043 27.425L21.1526 32.488L28.3885 49.8641C28.9168 51.2636 29.8495 52.4743 31.0679 53.3421C32.2863 54.2099 33.7354 54.6955 35.2307 54.7373H62.4445C67.9647 54.7584 71.6143 48.3452 69.2867 42.7477Z" fill="#00A050"/>
<path d="M33.9086 10.2598C33.9086 10.2598 38.2896 27.446 19.043 27.446L33.9086 10.2598Z" fill="#006245"/>
<path d="M55.517 23.9229H46.8888C46.3839 23.9229 45.9746 24.3306 45.9746 24.8335C45.9746 25.3364 46.3839 25.7441 46.8888 25.7441H55.517C56.0219 25.7441 56.4312 25.3364 56.4312 24.8335C56.4312 24.3306 56.0219 23.9229 55.517 23.9229Z" fill="white"/>
<path d="M43.8725 23.9229H42.4239C41.919 23.9229 41.5098 24.3306 41.5098 24.8335C41.5098 25.3364 41.919 25.7441 42.4239 25.7441H43.8725C44.3774 25.7441 44.7867 25.3364 44.7867 24.8335C44.7867 24.3306 44.3774 23.9229 43.8725 23.9229Z" fill="white"/>
<path d="M55.518 29.9001H34.1759C33.671 29.9001 33.2617 30.3079 33.2617 30.8108C33.2617 31.3138 33.671 31.7215 34.1759 31.7215H55.518C56.0229 31.7215 56.4322 31.3138 56.4322 30.8108C56.4322 30.3079 56.0229 29.9001 55.518 29.9001Z" fill="white"/>
<path d="M55.5174 35.8772H32.4454C31.9405 35.8772 31.5312 36.2849 31.5312 36.7879C31.5312 37.2908 31.9405 37.6985 32.4454 37.6985H55.5174C56.0223 37.6985 56.4316 37.2908 56.4316 36.7879C56.4316 36.2849 56.0223 35.8772 55.5174 35.8772Z" fill="white"/>
<path d="M36.5108 41.8618H34.9356C34.4308 41.8618 34.0215 42.2696 34.0215 42.7725C34.0215 43.2754 34.4308 43.6831 34.9356 43.6831H36.5108C37.0157 43.6831 37.425 43.2754 37.425 42.7725C37.425 42.2696 37.0157 41.8618 36.5108 41.8618Z" fill="white"/>
<path d="M55.5186 41.8618H39.2677C38.7628 41.8618 38.3535 42.2696 38.3535 42.7725C38.3535 43.2754 38.7628 43.6831 39.2677 43.6831H55.5186C56.0235 43.6831 56.4328 43.2754 56.4328 42.7725C56.4328 42.2696 56.0235 41.8618 55.5186 41.8618Z" fill="white"/>
<path d="M50.2437 32.4879L45.9753 22.2493L38.9433 5.44277L38.7042 4.88021C38.1775 3.4805 37.2463 2.26907 36.0292 1.40005C34.812 0.531027 33.364 0.0436903 31.8691 0H14.8657C13.6702 1.50485 12.4677 2.99562 11.2301 4.46531C8.29074 7.98131 5.18963 11.3075 2.18697 14.7461C1.48376 15.5548 0.724297 16.3635 0 17.1862L2.1096 22.2493L9.34554 39.6253C9.87249 41.0296 10.8064 42.2448 12.0277 43.1154C13.2491 43.986 14.7024 44.4725 16.2017 44.5126H43.4156C48.9217 44.5126 52.5713 38.0854 50.2437 32.4879Z" fill="#004927"/>
<path d="M14.8657 0C14.8657 0 19.2466 17.1862 0 17.1862L14.8657 0Z" fill="#04753C"/>
<path d="M36.476 13.6633H27.8477C27.3429 13.6633 26.9336 14.071 26.9336 14.574C26.9336 15.0769 27.3429 15.4846 27.8477 15.4846H36.476C36.9809 15.4846 37.3902 15.0769 37.3902 14.574C37.3902 14.071 36.9809 13.6633 36.476 13.6633Z" fill="white"/>
<path d="M24.8296 13.6633H23.381C22.8761 13.6633 22.4668 14.071 22.4668 14.574C22.4668 15.0769 22.8761 15.4846 23.381 15.4846H24.8296C25.3345 15.4846 25.7437 15.0769 25.7437 14.574C25.7437 14.071 25.3345 13.6633 24.8296 13.6633Z" fill="white"/>
<path d="M36.4751 19.6401H15.1329C14.628 19.6401 14.2188 20.0478 14.2188 20.5508C14.2188 21.0537 14.628 21.4614 15.1329 21.4614H36.4751C36.9799 21.4614 37.3892 21.0537 37.3892 20.5508C37.3892 20.0478 36.9799 19.6401 36.4751 19.6401Z" fill="white"/>
<path d="M36.4745 25.6177H13.4024C12.8976 25.6177 12.4883 26.0254 12.4883 26.5283C12.4883 27.0312 12.8976 27.4389 13.4024 27.4389H36.4745C36.9793 27.4389 37.3886 27.0312 37.3886 26.5283C37.3886 26.0254 36.9793 25.6177 36.4745 25.6177Z" fill="white"/>
<path d="M17.4678 31.6018H15.8927C15.3878 31.6018 14.9785 32.0095 14.9785 32.5124C14.9785 33.0154 15.3878 33.4231 15.8927 33.4231H17.4678C17.9727 33.4231 18.382 33.0154 18.382 32.5124C18.382 32.0095 17.9727 31.6018 17.4678 31.6018Z" fill="white"/>
<path d="M36.4757 31.6018H20.2247C19.7198 31.6018 19.3105 32.0095 19.3105 32.5124C19.3105 33.0154 19.7198 33.4231 20.2247 33.4231H36.4757C36.9806 33.4231 37.3899 33.0154 37.3899 32.5124C37.3899 32.0095 36.9806 31.6018 36.4757 31.6018Z" fill="white"/>
</svg>
